<svg width="32" height="18" viewBox="0 0 32 18" fill="none" xmlns="http://www.w3.org/2000/svg">
<path d="M31.0523 3.05232L16.9135 17.2104C16.776 17.3479 16.6339 17.4458 16.4872 17.5042C16.3404 17.5626 16.1781 17.5918 16 17.5918C15.8219 17.5918 15.6596 17.5626 15.5128 17.5042C15.3661 17.4458 15.224 17.3479 15.0865 17.2104L0.923082 3.03628C0.650305 2.77062 0.513915 2.4348 0.513915 2.02883C0.513915 1.62286 0.658499 1.27885 0.947665 0.996826C1.23042 0.706938 1.57443 0.561993 1.97971 0.561993C2.38496 0.561993 2.73253 0.706938 3.02242 0.996826L16 13.9744L28.9936 0.980784C29.2963 0.6852 29.6418 0.543103 30.0299 0.554492C30.4181 0.565909 30.7532 0.7162 31.0353 1.00537C31.3251 1.28812 31.47 1.63212 31.47 2.03737C31.47 2.44264 31.3308 2.78096 31.0523 3.05232Z" fill="#E8E8E8"/>
</svg>
