<svg width="154" height="154" viewBox="0 0 154 154" fill="none" xmlns="http://www.w3.org/2000/svg">
<mask id="mask0_82_748" style="mask-type:alpha" maskUnits="userSpaceOnUse" x="0" y="0" width="154" height="154">
<rect width="154" height="154" fill="#D9D9D9"/>
</mask>
<g mask="url(#mask0_82_748)">
<path d="M100.255 136.959C99.6499 136.959 99.0901 136.852 98.5759 136.638C98.0618 136.424 97.561 136.074 97.0736 135.589L78.8385 117.412C78.1228 116.697 77.7815 115.825 77.8144 114.797C77.8474 113.768 78.2217 112.876 78.9373 112.119C79.6942 111.403 80.5764 111.045 81.584 111.045C82.5918 111.045 83.4741 111.403 84.2309 112.119L100.31 128.358L136.206 92.4C136.922 91.6843 137.783 91.3162 138.791 91.2957C139.799 91.2751 140.681 91.6432 141.438 92.4C142.195 93.1568 142.573 94.0391 142.573 95.0468C142.573 96.0546 142.195 96.9163 141.438 97.632L103.473 135.597C102.993 136.077 102.488 136.424 101.958 136.638C101.428 136.852 100.861 136.959 100.255 136.959ZM24.7659 36.1555L76.7409 69.7689L128.778 36.1555H24.7659ZM25.2967 123.693C22.7804 123.693 20.6089 122.78 18.782 120.953C16.9552 119.126 16.0418 116.955 16.0418 114.439V38.13C16.0418 35.6137 16.9552 33.4422 18.782 31.6154C20.6089 29.7885 22.7804 28.8751 25.2967 28.8751H128.346C130.862 28.8751 133.033 29.7885 134.86 31.6154C136.687 33.4422 137.6 35.6137 137.6 38.13V76.0992L134.002 79.7405C132.983 80.7722 131.755 81.9852 130.32 83.3796V42.609L79.3076 75.8153C78.8798 76.0702 78.4788 76.2409 78.1044 76.3273C77.7301 76.4137 77.2859 76.457 76.7717 76.457C76.2575 76.457 75.803 76.4137 75.4082 76.3273C75.0133 76.2409 74.6226 76.0702 74.2358 75.8153L23.3222 42.609V114.439C23.3222 115.015 23.5073 115.488 23.8775 115.858C24.2478 116.228 24.7208 116.413 25.2967 116.413H63.0314L70.3116 123.693H25.2967Z" fill="#E8E8E8"/>
</g>
</svg>
