<svg xmlns="http://www.w3.org/2000/svg" width="68" height="66" viewBox="0 0 68 66" fill="none">
<path d="M66.301 64.5166H53.8258L46.4196 45.4135H38.3314V64.5166H26.9613V31.4731C25.1113 32.1761 15.1596 32.3821 13.1764 31.779V49.6845H1.69897V1.4834H20.6923C24.9284 1.4834 28.1708 1.93562 30.4196 2.84007C32.6684 3.74451 34.6754 5.36346 36.4407 7.69693C38.2069 10.0279 39.0904 12.8872 39.0912 16.2748V16.3142H48.1463C52.0535 16.3142 55.1911 16.7665 57.5591 17.6709C59.9271 18.5753 61.8865 20.2399 63.4372 22.6647C64.9912 25.0894 65.7682 27.783 65.7682 30.7455C65.7682 36.5298 62.9784 40.682 57.3988 43.2021L66.301 64.5166Z" stroke="#CCCCCC" stroke-width="2.46667" stroke-linecap="round" stroke-linejoin="round"/>
</svg>
