<svg width="16" height="16" viewBox="0 0 16 16" fill="none" xmlns="http://www.w3.org/2000/svg">
<path d="M11.2707 4.78885C11.2738 4.78885 11.2781 4.78885 11.2823 4.78885C11.3934 4.78885 11.4964 4.82337 11.5809 4.88287L11.5793 4.88181C11.6409 4.93546 11.6823 5.01089 11.6924 5.09588V5.09748C11.7031 5.16228 11.7089 5.23665 11.7089 5.31262C11.7089 5.34715 11.7078 5.38114 11.7052 5.41514V5.41036C11.5857 6.66879 11.0672 9.72058 10.8037 11.1293C10.6922 11.7259 10.4728 11.9256 10.2603 11.9448C9.79867 11.9878 9.44807 11.6398 9.0008 11.3466C8.30066 10.8871 7.90491 10.6013 7.2255 10.1535C6.43984 9.63665 6.94927 9.35139 7.39655 8.88712C7.51394 8.76494 9.549 6.91368 9.58884 6.74582C9.59097 6.73572 9.59203 6.72457 9.59203 6.71288C9.59203 6.67145 9.57663 6.63373 9.55166 6.60505C9.52404 6.58699 9.48951 6.57689 9.45339 6.57689C9.42948 6.57689 9.40664 6.58167 9.38539 6.58964L9.38645 6.58911C9.31633 6.60505 8.19796 7.34414 6.03134 8.80637C5.79495 8.99283 5.49641 9.11076 5.17132 9.12457H5.16813C4.70757 9.06879 4.28951 8.96627 3.8927 8.82019L3.93201 8.83294C3.43373 8.67039 3.03798 8.58486 3.07198 8.30969C3.09004 8.16662 3.2873 8.02019 3.66375 7.87039C5.98265 6.86003 7.529 6.19407 8.30279 5.87251C9.15644 5.41939 10.1461 5.04648 11.1867 4.80478L11.2701 4.78831L11.2707 4.78885ZM7.98141 0C3.57131 0.0106242 0 3.58831 0 8C0 12.4181 3.58141 16 8 16C12.4186 16 16 12.4186 16 8C16 3.58831 12.4287 0.0106242 8.01966 0H8.01859C8.0062 0 7.9938 0 7.98141 0Z" fill="#E8E8E8"/>
</svg>
