<svg width="16" height="16" viewBox="0 0 16 16" fill="none" xmlns="http://www.w3.org/2000/svg">
<path fill-rule="evenodd" clip-rule="evenodd" d="M12.6568 11.2969C12.464 11.8426 11.6976 12.2941 11.0864 12.4262C10.668 12.515 10.1224 12.5853 8.284 11.8234C6.2192 10.968 3.352 7.92078 3.352 5.89297C3.352 4.86066 3.9472 3.65859 4.988 3.65859C5.4888 3.65859 5.5992 3.66836 5.764 4.06367C5.9568 4.52942 6.4272 5.6769 6.4832 5.79453C6.7144 6.27708 6.24799 6.55956 5.90959 6.97969C5.80159 7.10612 5.6792 7.24286 5.816 7.47812C5.952 7.7086 6.4224 8.47524 7.1136 9.09062C8.0064 9.88606 8.7304 10.14 8.9896 10.248C9.1824 10.3281 9.4128 10.3094 9.5536 10.159C9.732 9.96613 9.9536 9.64616 10.1792 9.33086C10.3384 9.10519 10.5408 9.07701 10.7528 9.15703C10.896 9.20665 12.716 10.0519 12.7928 10.1871C12.8496 10.2855 12.8496 10.7511 12.6568 11.2969ZM8.0016 0H7.99759C3.5872 0 0 3.58828 0 8C0 9.74933 0.564006 11.3723 1.52321 12.6887L0.526404 15.6613L3.60081 14.6789C4.86561 15.516 6.3752 16 8.0016 16C12.412 16 16 12.4117 16 8C16 3.58828 12.412 0 8.0016 0Z" fill="#E8E8E8"/>
</svg>
