<svg width="154" height="154" viewBox="0 0 154 154" fill="none" xmlns="http://www.w3.org/2000/svg">
<mask id="mask0_82_741" style="mask-type:alpha" maskUnits="userSpaceOnUse" x="0" y="0" width="154" height="154">
<rect width="154" height="154" fill="#D9D9D9"/>
</mask>
<g mask="url(#mask0_82_741)">
<path d="M75.6425 130.493C76.3829 130.493 77.1727 130.328 78.0119 129.999C78.851 129.67 79.5255 129.23 80.0355 128.679L132.43 76.1855C133.944 74.6718 135.11 73.0238 135.928 71.2415C136.747 69.4591 137.156 67.5944 137.156 65.6474C137.156 63.6648 136.747 61.7131 135.928 59.7922C135.11 57.8713 133.944 56.154 132.43 54.6403L105.591 27.8015C104.078 26.2878 102.422 25.1525 100.624 24.3957C98.827 23.6388 96.9369 23.2604 94.9543 23.2604C93.0074 23.2604 91.1324 23.6388 89.3294 24.3957C87.5265 25.1525 85.8887 26.2878 84.4162 27.8015L79.9244 32.2933L92.6096 45.0772C93.8765 46.41 94.9727 47.9833 95.8982 49.7972C96.8236 51.611 97.2863 53.5504 97.2863 55.6153C97.2863 59.2267 95.9351 62.3569 93.2327 65.0058C90.5303 67.6547 87.394 68.9791 83.8238 68.9791C81.5204 68.9791 79.5584 68.6398 77.9378 67.9611C76.3173 67.2824 74.8369 66.2852 73.4966 64.9695L61.5507 52.9867L32.9472 81.5903C32.3302 82.2073 31.8736 82.9038 31.5774 83.6799C31.2812 84.4561 31.1332 85.2436 31.1332 86.0423C31.1332 87.5989 31.6391 88.8729 32.651 89.8643C33.6628 90.8555 34.9284 91.3512 36.4476 91.3512C37.2895 91.3512 38.097 91.1599 38.8702 90.7774C39.6435 90.3948 40.2853 89.9485 40.7954 89.4385L62.1306 68.1031L67.2638 73.2363L46.0272 94.4113C45.4102 95.0694 44.9537 95.7913 44.6576 96.5769C44.3613 97.3625 44.2132 98.1585 44.2132 98.9647C44.2132 100.413 44.7459 101.669 45.8113 102.735C46.8767 103.8 48.1333 104.333 49.5811 104.333C50.3873 104.333 51.1771 104.168 51.9504 103.839C52.7238 103.51 53.3654 103.07 53.8754 102.519L75.9512 80.4427L81.0844 85.576L59.1073 107.491C58.5972 108.043 58.1674 108.729 57.8178 109.55C57.4682 110.371 57.2934 111.203 57.2934 112.045C57.2934 113.493 57.8261 114.749 58.8913 115.815C59.9567 116.88 61.2133 117.413 62.6611 117.413C63.4674 117.413 64.2304 117.265 64.9503 116.968C65.6701 116.672 66.3385 116.216 66.9555 115.599L89.0312 93.5229L94.1646 98.6561L72.0887 120.732C71.4717 121.349 71.0152 122.071 70.719 122.897C70.4228 123.724 70.2747 124.487 70.2747 125.187C70.2747 126.807 70.7745 128.097 71.7741 129.055C72.7736 130.013 74.0631 130.493 75.6425 130.493ZM75.6528 137.773C72.3224 137.773 69.411 136.525 66.9184 134.028C64.4258 131.531 63.1178 128.413 62.9945 124.674C59.3584 124.481 56.3207 123.216 53.8815 120.88C51.4425 118.544 50.1201 115.455 49.9144 111.613C46.1137 111.366 43.0411 110.048 40.6966 107.658C38.352 105.268 37.0975 102.226 36.933 98.5327C33.2229 98.327 30.1154 97.0725 27.6104 94.7692C25.1055 92.4658 23.853 89.5043 23.853 85.8847C23.853 84.19 24.1919 82.4927 24.8699 80.7927C25.5479 79.0928 26.4963 77.6147 27.7152 76.3583L61.5507 42.5229L77.9007 58.8731C78.7151 59.6874 79.6419 60.3455 80.6812 60.8473C81.7205 61.3492 82.801 61.6001 83.9226 61.6001C85.4362 61.6001 86.8285 60.9749 88.0995 59.7244C89.3706 58.474 90.0061 57.0632 90.0061 55.492C90.0061 54.661 89.7881 53.8034 89.3521 52.919C88.9161 52.0347 88.2908 51.1648 87.4763 50.3092L64.9687 27.8015C63.455 26.2878 61.7892 25.1525 59.9711 24.3957C58.1531 23.6388 56.2527 23.2604 54.2701 23.2604C52.3231 23.2604 50.4688 23.6388 48.707 24.3957C46.9452 25.1525 45.3105 26.2801 43.803 27.7785L21.4466 50.1486C19.8671 51.7281 18.7216 53.4392 18.01 55.282C17.2983 57.1247 16.9302 59.1916 16.9055 61.4827C16.8397 63.4037 17.1893 65.2711 17.9543 67.0849C18.7194 68.8989 19.6613 70.5463 20.7802 72.0271L15.4248 77.3207C13.7795 75.2969 12.4118 72.8537 11.3219 69.9909C10.2319 67.1281 9.66631 64.2118 9.62514 61.2421C9.58407 58.1161 10.1476 55.1443 11.3158 52.3268C12.4839 49.5091 14.1498 47.0185 16.3134 44.855L38.5 22.6683C40.7293 20.4389 43.1966 18.7834 45.9016 17.7016C48.6066 16.6198 51.4385 16.0789 54.3974 16.0789C57.3564 16.0789 60.1726 16.6198 62.8463 17.7016C65.5199 18.7834 67.9714 20.4389 70.2007 22.6683L74.6924 27.1601L79.1842 22.6683C81.4136 20.4389 83.8705 18.7834 86.5549 17.7016C89.2393 16.6198 92.061 16.0789 95.0199 16.0789C97.9788 16.0789 100.805 16.6198 103.5 17.7016C106.194 18.7834 108.655 20.4389 110.885 22.6683L137.563 49.3467C139.793 51.5761 141.495 54.1177 142.672 56.9716C143.848 59.8257 144.436 62.7193 144.436 65.6526C144.436 68.586 143.848 71.3895 142.672 74.0631C141.495 76.7367 139.793 79.1882 137.563 81.4175L85.1687 133.812C83.8608 135.161 82.3948 136.159 80.7707 136.804C79.1467 137.45 77.4407 137.773 75.6528 137.773Z" fill="#E8E8E8"/>
</g>
</svg>
