<svg width="154" height="154" viewBox="0 0 154 154" fill="none" xmlns="http://www.w3.org/2000/svg">
<mask id="mask0_82_754" style="mask-type:alpha" maskUnits="userSpaceOnUse" x="0" y="0" width="154" height="154">
<rect width="154" height="154" fill="#D9D9D9"/>
</mask>
<g mask="url(#mask0_82_754)">
<path d="M102.223 76.6913C101.61 76.6913 101.016 76.5947 100.44 76.4013C99.8636 76.2081 99.3348 75.8852 98.8536 75.4327C89.7551 67.4613 82.1231 59.8793 75.9573 52.6868C69.7915 45.4942 66.7086 38.832 66.7086 32.7003C66.7086 27.6999 68.438 23.4657 71.8967 19.9977C75.3552 16.5296 79.6125 14.7955 84.6684 14.7955C87.6756 14.7955 90.7258 15.6778 93.819 17.4424C96.9122 19.207 99.7298 21.7305 102.272 25.0128C104.814 21.7305 107.621 19.207 110.694 17.4424C113.766 15.6778 116.822 14.7955 119.86 14.7955C124.92 14.7955 129.181 16.5296 132.642 19.9977C136.104 23.4657 137.835 27.6999 137.835 32.7003C137.835 38.832 134.752 45.4942 128.586 52.6868C122.42 59.8793 114.79 67.4613 105.695 75.4327C105.239 75.8852 104.7 76.2081 104.076 76.4013C103.453 76.5947 102.836 76.6913 102.223 76.6913ZM102.272 68.2635C109.618 61.8469 116.168 55.4837 121.923 49.1739C127.677 42.8642 130.554 37.366 130.554 32.6793C130.554 29.5922 129.565 27.0532 127.585 25.0622C125.606 23.0712 123.051 22.0757 119.921 22.0757C118.068 22.0757 116.125 22.5755 114.093 23.5751C112.061 24.5746 109.91 26.5798 107.639 29.5908L102.272 36.3158L96.8424 29.5908C94.5718 26.5798 92.4218 24.5746 90.3925 23.5751C88.3632 22.5755 86.4498 22.0757 84.6524 22.0757C81.5025 22.0757 78.9378 23.0712 76.9583 25.0622C74.9787 27.0532 73.989 29.5922 73.989 32.6793C73.989 37.366 76.8662 42.8642 82.6207 49.1739C88.375 55.4837 94.9254 61.8469 102.272 68.2635ZM88.3031 133.059C88.5088 133.142 88.7042 133.183 88.8893 133.183C89.0744 133.183 89.2492 133.142 89.4137 133.059L128.333 120.917C127.938 119.527 127.233 118.204 126.216 116.95C125.2 115.695 124.063 115.068 122.805 115.068H87.1557C86.3248 115.068 84.9304 114.978 82.9725 114.797C81.0145 114.615 79.0895 114.13 77.1973 113.34L66.0546 109.947C65.0729 109.613 64.3297 108.946 63.8251 107.945C63.3207 106.943 63.2412 105.945 63.5866 104.95C63.9321 103.995 64.564 103.29 65.4821 102.833C66.4003 102.377 67.3808 102.354 68.4236 102.765L82.7254 107.677C83.1697 107.882 84.4078 107.962 86.4399 107.917C88.4718 107.872 91.1633 107.829 94.5143 107.788H95.9661C95.9661 106.089 95.6843 104.616 95.1208 103.367C94.5573 102.119 93.6257 101.227 92.3259 100.692L53.8259 86.2055L53.4556 86.1129C53.3734 86.0924 53.2706 86.0821 53.1472 86.0821H38.9317V118.437L88.3031 133.059ZM86.7729 140.044L38.9317 126.137C38.6767 128.901 37.5353 131.044 35.5074 132.566C33.4797 134.088 31.5361 134.848 29.6769 134.848H19.0034C16.48 134.848 14.3067 133.937 12.4835 132.114C10.6603 130.29 9.74868 128.117 9.74868 125.594V88.0565C9.74868 85.5012 10.6603 83.3199 12.4835 81.5127C14.3067 79.7054 16.48 78.8018 19.0034 78.8018H52.925C53.4954 78.8018 54.0453 78.8553 54.5746 78.9622C55.1037 79.0691 55.6357 79.209 56.1704 79.3819L94.732 93.7699C97.2082 94.6748 99.3224 96.1967 101.075 98.3356C102.827 100.474 103.703 103.625 103.703 107.788H123.78C127.737 107.788 130.894 109.166 133.25 111.922C135.607 114.677 136.786 118.309 136.786 122.817C136.786 123.788 136.56 124.666 136.107 125.452C135.655 126.237 134.964 126.803 134.034 127.148L92.0421 140.044C91.2093 140.257 90.3368 140.364 89.4246 140.364C88.5124 140.364 87.6285 140.257 86.7729 140.044ZM17.0289 125.594C17.0289 126.128 17.214 126.591 17.5842 126.982C17.9545 127.373 18.4275 127.568 19.0034 127.568H29.5165C30.0924 127.568 30.5655 127.404 30.9357 127.075C31.306 126.745 31.4911 126.252 31.4911 125.594V86.0821H19.0034C18.4275 86.0821 17.9545 86.2673 17.5842 86.6375C17.214 87.0076 17.0289 87.4806 17.0289 88.0565V125.594Z" fill="#E8E8E8"/>
</g>
</svg>
